<svg width="207" height="206" xmlns="http://www.w3.org/2000/svg" xmlns:xlink="http://www.w3.org/1999/xlink" overflow="hidden"><g transform="translate(-575 -327)"><g><g><g><path d="M712.667 391.062C712.667 409.932 697.37 425.229 678.5 425.229 659.63 425.229 644.333 409.932 644.333 391.062 644.333 372.193 659.63 356.896 678.5 356.896 697.37 356.896 712.667 372.193 712.667 391.062Z" fill="#009F4D"/><path d="M746.833 502.104 746.833 467.938C746.833 462.812 744.271 457.688 740 454.271 730.604 446.583 718.646 441.458 706.688 438.042 698.146 435.479 688.75 433.771 678.5 433.771 669.104 433.771 659.708 435.479 650.312 438.042 638.354 441.458 626.396 447.438 617 454.271 612.729 457.688 610.167 462.812 610.167 467.938L610.167 502.104 746.833 502.104Z" fill="#009F4D"/></g></g></g></g></svg>